<?xml version="1.0"?>
<svg xmlns="http://www.w3.org/2000/svg" id="Layer_1" enable-background="new 0 0 496 496" height="512px" viewBox="0 0 496 496" width="512px"><g><path d="m318 39.986h-270c-26.467 0-48 21.533-48 48v154c0 26.467 21.533 48 48 48h32.393l-7.212 47.603c-1.468 9.693 6.053 18.397 15.821 18.397 5.653 0-2.823 3.619 128.176-66h100.822c26.467 0 48-21.533 48-48v-154c0-26.468-21.533-48-48-48zm-225 153c-15.439 0-28-12.561-28-28s12.561-28 28-28 28 12.561 28 28-12.561 28-28 28zm90 0c-15.439 0-28-12.561-28-28s12.561-28 28-28 28 12.561 28 28-12.561 28-28 28zm90 0c-15.439 0-28-12.561-28-28s12.561-28 28-28 28 12.561 28 28-12.561 28-28 28zm223-5v154c0 26.51-21.49 48-48 48h-32.39l7.21 47.6c1.467 9.64-5.997 18.4-15.82 18.4-5.691 0 2.562 3.483-128.18-66h-100.82c-12.001 0-22.989-4.427-31.414-11.734-8.273-7.175-7.069-20.355 2.372-25.903 72.415-42.556 68.549-41.263 74.555-41.263h104.107c31.149 0 56.4-25.251 56.4-56.4v-98.7c0-8.837 7.163-16 16-16h47.98c26.51 0 48 21.49 48 48z" data-original="#000000" class="active-path" data-old_color="#000000" fill="#696969"/></g> </svg>
